<svg width="100" height="100" viewBox="0 0 100 100" fill="none" xmlns="http://www.w3.org/2000/svg">
<g clip-path="url(#clip0_74_57)">
<path d="M76.8725 31.1827C76.8725 35.6367 76.309 39.6883 75.1821 43.3375C74.1088 46.9329 72.4453 50.0454 70.1914 52.6749C67.9912 55.3044 65.147 57.3168 61.6589 58.7121C58.2244 60.1073 54.1728 60.805 49.5041 60.805C44.8354 60.805 40.7569 60.1073 37.2688 58.7121C33.8343 57.2632 30.9902 55.2508 28.7363 52.6749C26.5361 50.0454 24.8725 46.9061 23.7456 43.257C22.6723 39.6078 22.1357 35.5562 22.1357 31.1022C22.1357 25.1455 23.1016 19.967 25.0335 15.5666C27.0191 11.1661 30.0242 7.75851 34.049 5.34365C38.1274 2.87512 43.3059 1.64086 49.5846 1.64086C55.8096 1.64086 60.9344 2.87512 64.9592 5.34365C68.984 7.75851 71.9623 11.193 73.8942 15.6471C75.8797 20.0475 76.8725 25.226 76.8725 31.1827ZM34.9344 31.1827C34.9344 35.2074 35.4442 38.6687 36.4638 41.5666C37.4834 44.4644 39.0665 46.6914 41.2131 48.2477C43.3596 49.8039 46.1233 50.582 49.5041 50.582C52.9922 50.582 55.7827 49.8039 57.8756 48.2477C60.0222 46.6914 61.5784 44.4644 62.5443 41.5666C63.5639 38.6687 64.0738 35.2074 64.0738 31.1827C64.0738 25.1187 62.9468 20.3694 60.6929 16.935C58.4391 13.5005 54.7363 11.7833 49.5846 11.7833C46.1501 11.7833 43.3596 12.5614 41.2131 14.1176C39.0665 15.6739 37.4834 17.9009 36.4638 20.7988C35.4442 23.6966 34.9344 27.1579 34.9344 31.1827Z" fill="black"/>
<path d="M40.0977 99.4428C38.7561 99.4428 37.3609 99.3355 35.912 99.1208C34.4094 98.9598 33.1751 98.7452 32.2092 98.4768V89.0589C33.1751 89.2735 34.0874 89.4345 34.946 89.5419C35.8046 89.7028 36.7706 89.7833 37.8438 89.7833C39.4538 89.7833 40.8222 89.3272 41.9491 88.4149C43.076 87.5026 43.6395 85.7317 43.6395 83.1022V36.1734H55.6333V84.8731C55.6333 87.5563 55.1235 89.998 54.1039 92.1982C53.0843 94.3984 51.4207 96.1425 49.1132 97.4304C46.8593 98.772 43.8542 99.4428 40.0977 99.4428ZM43.1565 24.8236C43.1565 22.5697 43.7737 21.0403 45.0079 20.2354C46.2959 19.3767 47.8521 18.9474 49.6767 18.9474C51.4476 18.9474 52.977 19.3767 54.2649 20.2354C55.5528 21.0403 56.1968 22.5697 56.1968 24.8236C56.1968 27.0238 55.5528 28.5532 54.2649 29.4118C52.977 30.2704 51.4476 30.6997 49.6767 30.6997C47.8521 30.6997 46.2959 30.2704 45.0079 29.4118C43.7737 28.5532 43.1565 27.0238 43.1565 24.8236Z" fill="black"/>
</g>
<defs>
<clipPath id="clip0_74_57">
<rect width="100" height="100" fill="white"/>
</clipPath>
</defs>
</svg>
