<svg width="124" height="45" viewBox="0 0 124 45" fill="none" xmlns="http://www.w3.org/2000/svg">
<path d="M13.9865 36.3266C11.8094 36.3266 9.79553 35.8258 7.94496 34.8243C6.11616 33.8011 4.65747 32.3533 3.5689 30.4809C2.48033 28.6086 1.93605 26.4315 1.93605 23.9495C1.93605 21.4458 2.48033 19.2687 3.5689 17.4181C4.65747 15.5458 6.11616 14.1089 7.94496 13.1074C9.79553 12.1059 11.8094 11.6051 13.9865 11.6051C16.1637 11.6051 18.1666 12.1059 19.9954 13.1074C21.846 14.1089 23.3156 15.5458 24.4041 17.4181C25.4927 19.2687 26.037 21.4458 26.037 23.9495C26.037 26.4315 25.4927 28.6086 24.4041 30.4809C23.3156 32.3533 21.846 33.8011 19.9954 34.8243C18.1666 35.8258 16.1637 36.3266 13.9865 36.3266ZM13.9865 33.0282C15.4887 33.0282 16.8603 32.6799 18.1013 31.9832C19.3423 31.2647 20.322 30.2306 21.0405 28.8808C21.7807 27.5092 22.1508 25.8763 22.1508 23.9822C22.1508 22.0663 21.7807 20.4334 21.0405 19.0836C20.322 17.712 19.3423 16.6779 18.1013 15.9812C16.8821 15.2845 15.5105 14.9362 13.9865 14.9362C12.4625 14.9362 11.08 15.2845 9.83907 15.9812C8.5981 16.6779 7.61839 17.712 6.89993 19.0836C6.18147 20.4334 5.82225 22.0663 5.82225 23.9822C5.82225 25.8763 6.19236 27.5092 6.93259 28.8808C7.67281 30.2306 8.66341 31.2647 9.90438 31.9832C11.1671 32.6799 12.5278 33.0282 13.9865 33.0282ZM29.7936 21.0104H33.3206V23.9495C33.6689 22.948 34.2349 22.1425 35.0187 21.5329C35.8025 20.9233 36.6951 20.6185 37.6966 20.6185C38.3933 20.6185 38.8723 20.6838 39.1335 20.8144L38.6437 24.3741C38.4477 24.2434 38.0232 24.1781 37.37 24.1781C36.3468 24.1781 35.4106 24.5047 34.5615 25.1578C33.7342 25.811 33.3206 26.856 33.3206 28.2929V36H29.7936V21.0104ZM50.5104 36.3266C49.2912 36.3266 48.1918 36.0327 47.2121 35.4448C46.2541 34.8352 45.5901 34.1385 45.22 33.3548L45.1547 36H41.7583V11.997H45.22V21.239L45.0567 23.7862C45.4268 22.9154 46.1453 22.1752 47.2121 21.5656C48.3006 20.9342 49.4763 20.6185 50.739 20.6185C52.2195 20.6185 53.504 20.956 54.5926 21.6309C55.7029 22.284 56.552 23.2093 57.1398 24.4067C57.7277 25.5824 58.0216 26.954 58.0216 28.5215C58.0216 30.1108 57.6732 31.4933 56.9765 32.669C56.3016 33.8446 55.3872 34.7481 54.2333 35.3795C53.1012 36.0109 51.8603 36.3266 50.5104 36.3266ZM49.9226 33.3874C51.3377 33.3874 52.4263 32.9411 53.1883 32.0485C53.9503 31.1341 54.3313 29.9584 54.3313 28.5215C54.3313 27.0628 53.9503 25.8872 53.1883 24.9946C52.4481 24.0802 51.3595 23.623 49.9226 23.623C48.6816 23.623 47.6366 24.0584 46.7875 24.9292C45.9384 25.7783 45.5139 26.8996 45.5139 28.2929V28.5215C45.5139 29.4577 45.7098 30.2959 46.1017 31.0361C46.5154 31.7763 47.0488 32.3533 47.7019 32.7669C48.3768 33.1806 49.1171 33.3874 49.9226 33.3874ZM62.0445 21.0104H65.7021V36H62.0445V21.0104ZM63.8407 18.2019C63.1657 18.2019 62.5997 17.9733 62.1425 17.5161C61.6853 17.0589 61.4567 16.4928 61.4567 15.8179C61.4567 15.2083 61.6853 14.6858 62.1425 14.2504C62.5997 13.8149 63.1657 13.5972 63.8407 13.5972C64.4938 13.5972 65.049 13.8149 65.5062 14.2504C65.9634 14.6858 66.192 15.2083 66.192 15.8179C66.192 16.4928 65.9634 17.0589 65.5062 17.5161C65.0707 17.9733 64.5156 18.2019 63.8407 18.2019ZM74.5695 36.3266C73.6551 36.3266 72.7299 36.2177 71.7937 36C70.8575 35.7605 70.0738 35.3686 69.4424 34.8243L70.9119 31.4607C71.3038 31.9179 71.7393 32.2662 72.2182 32.5057C72.719 32.7234 73.3286 32.8323 74.047 32.8323C74.7219 32.8323 75.2662 32.7125 75.6799 32.473C76.0935 32.2335 76.3983 31.7981 76.5943 31.1667C76.812 30.5354 76.9209 29.6319 76.9209 28.4562V11.997H80.5458V29.3706C80.5458 31.809 79.9906 33.5834 78.8803 34.6937C77.7917 35.7823 76.3548 36.3266 74.5695 36.3266ZM92.7249 36.3266C90.9396 36.3266 89.4483 35.9782 88.2508 35.2815C87.0534 34.5631 86.1717 33.616 85.6056 32.4404C85.0396 31.2429 84.7565 29.9367 84.7565 28.5215C84.7565 26.9322 85.0831 25.5388 85.7362 24.3414C86.4112 23.144 87.3364 22.2296 88.5121 21.5982C89.6877 20.9451 91.0158 20.6185 92.4963 20.6185C94.804 20.6185 96.5131 21.2608 97.6234 22.5453C98.7555 23.808 99.3216 25.5933 99.3216 27.901C99.3216 28.4889 99.2889 29.0985 99.2236 29.7298H88.4468C88.6863 31.0579 89.1543 32.0158 89.851 32.6037C90.5695 33.1915 91.5601 33.4854 92.8228 33.4854C93.8679 33.4854 94.7278 33.3983 95.4027 33.2241C96.0777 33.05 96.6981 32.8105 97.2642 32.5057L98.3419 35.0203C97.7976 35.3686 97.0574 35.6734 96.1212 35.9347C95.185 36.1959 94.0529 36.3266 92.7249 36.3266ZM95.8926 27.2806C95.9144 25.9307 95.6205 24.9837 95.0109 24.4394C94.4013 23.8733 93.5304 23.5903 92.3983 23.5903C90.1123 23.5903 88.7951 24.8204 88.4468 27.2806H95.8926ZM112.163 27.6724L107.722 36H107.101L100.799 21.0104H104.587L107.82 29.7298L112.098 21.0104H112.229L116.539 29.6645L119.772 21.0104H123.495L117.225 36H116.605L112.163 27.6724Z" fill="white"/>
</svg>
